<?xml version="1.0" encoding="utf-8"?>
<!-- Svg Vector Icons : http://www.onlinewebfonts.com/icon -->
<!DOCTYPE svg PUBLIC "-//W3C//DTD SVG 1.1//EN" "http://www.w3.org/Graphics/SVG/1.1/DTD/svg11.dtd">
<svg version="1.1" xmlns="http://www.w3.org/2000/svg" xmlns:xlink="http://www.w3.org/1999/xlink" x="0px" y="0px" viewBox="0 0 256 256" enable-background="new 0 0 256 256" xml:space="preserve">
<metadata> Svg Vector Icons : http://www.onlinewebfonts.com/icon </metadata>
<g><g><g><path fill="#000000" d="M125,10.6c-0.7,0.4-11.9,11.2-24.7,24C79.8,55.3,76.9,58.4,76.6,59.8c-0.5,2.5,0.1,4.7,1.5,6.4c2.3,2.6,2.8,2.7,19.7,2.7h15.4v22.1v22.1H91.1H69V97.8c0-17-0.1-17.5-2.7-19.7c-1.7-1.4-3.9-1.9-6.4-1.5c-1.6,0.2-4.6,3.1-25.6,24.1c-25.8,25.8-24.9,24.7-24.1,29c0.2,1.6,3.1,4.6,24.1,25.6c21,21,24,23.9,25.5,24.1c2.5,0.5,4.7-0.1,6.4-1.5c2.6-2.3,2.7-2.8,2.7-19.7v-15.4h22.1h22.1v22.1v22.1H97.8c-17,0-17.5,0.1-19.7,2.7c-1.4,1.7-1.9,3.9-1.5,6.4c0.2,1.5,3.1,4.5,24.1,25.5c21,21,24,23.9,25.6,24.1c4.3,0.8,3.1,1.7,29-24.1c21-21,23.9-24,24.1-25.6c0.5-2.4-0.1-4.7-1.5-6.4c-2.3-2.6-2.8-2.7-19.7-2.7h-15.4v-22.1v-22.1h22.1H187v15.4c0,17,0.1,17.5,2.7,19.7c1.7,1.4,3.9,1.9,6.4,1.5c1.5-0.2,4.5-3.1,25.5-24.1c21-21,23.9-24,24.1-25.6c0.8-4.3,1.7-3.1-24.1-29c-21-21-24-23.9-25.5-24.1c-2.5-0.5-4.7,0.1-6.4,1.5c-2.6,2.3-2.7,2.8-2.7,19.7v15.4h-22.1h-22.1V91.1V69h15.4c17,0,17.5-0.1,19.7-2.7c1.4-1.7,1.9-3.9,1.5-6.4c-0.3-1.5-3.1-4.6-23.6-25.2c-13.4-13.4-24-23.7-24.8-24C129.1,9.9,126.8,9.9,125,10.6z"/></g></g></g>
</svg>





