<?xml version="1.0" encoding="UTF-8"?>
<svg id="Layer_1" xmlns="http://www.w3.org/2000/svg" viewBox="0 0 480 720">
  <defs>
    <style>
      .cls-1 {
        fill: #c3bfc8;
      }

      .cls-2 {
        fill: #faf0d3;
      }

      .cls-3 {
        fill: #e3dfcf;
      }

      .cls-4 {
        fill: #f6d8cb;
      }

      .cls-5 {
        fill: #fbf6f3;
      }

      .cls-6 {
        fill: #dec1c3;
      }
    </style>
  </defs>
  <path class="cls-5" d="M.07,226.3C.07,151.91.08,77.51,0,3.12,0,.63.39.01,3.03.01,160.96.1,318.9.1,476.83,0c2.91,0,3.16.86,3.16,3.35-.06,237.78-.06,475.57.01,713.35,0,2.6-.41,3.3-3.21,3.3-157.81-.09-315.62-.09-473.43,0-2.98,0-3.35-.86-3.35-3.53.07-161.89.06-323.79.06-485.68,7.84,2.62,15.72,5.14,23.51,7.9,9.17,3.25,18.23,6.81,27.42,10.01,2.72.95,4.3,2.43,4.45,5.22.17,3.21,1.03,6.42,1.95,9.31,4.04,12.78,6.72,25.89,10.23,38.8.6,2.19.7,4.7,3.21,6.72.79-3.09,3.26-4.68,4.96-6.94,6.11-8.13,12.47-16.08,18.54-24.25,3.36-4.52,7.6-8.37,10.12-13.54.93-1.91,2.71-2.68,4.98-2.58,12.91.58,25.82,1.05,38.74,1.57.49.02.97.24,1.46.27,5.8.41,11.6.81,17.65,1.23-.74-1.89-1.4-3.39-2.38-4.85-4.28-6.37-8.39-12.84-12.73-19.18-5.1-7.47-10.12-15.02-15.18-22.52-2.82-4.17-1.88-7.29-.33-10.98.38-.91.99-1.73,1.27-2.66,2.88-9.63,7.33-18.66,10.71-28.1,1.87-5.22,4.21-10.28,6.26-15.44.35-.88.73-2.16.35-2.82-.63-1.11-1.77,0-2.69.11-5.85.65-11.2,3.17-16.83,4.66-10.64,2.82-21.13,6.23-31.74,9.15-2.37.65-4.99,2.3-7.51.59-2.56-1.74-5.02-3.67-7.32-5.74-11.6-10.48-24.26-19.69-36.02-29.98-.65-.57-1.3-1.3-2.28-.73-.78.45-.61,1.3-.62,2.02-.06,4.85-.49,9.7-.61,14.52-.3,13.19-.77,26.35-1.45,39.52-.21,4.1-2.11,6.04-4.94,7.67-10.73,6.18-20.83,13.33-31.33,19.84-3.84,2.38-7.2,5.73-11.85,6.71ZM356.36,182.16c4.06-.5,1.33-3.12.77-4.34-6.95-15.28-14.03-30.5-21.19-45.68-1.64-3.48-2.06-6.5.18-10.04,4.65-7.33,8.87-14.93,13.29-22.41,4.68-7.92,9.32-15.86,14.11-23.7,1.32-2.17.63-2.67-1.44-2.42-8.86,1.07-17.71,2.23-26.57,3.29-9.85,1.17-19.7,2.28-29.56,3.38-1.11.12-2.21.08-3.08-.91-8.12-9.24-16.27-18.45-24.39-27.68-4.27-4.85-8.5-9.75-12.8-14.57-.82-.92-2.06-2.63-2.77.05-1.11,4.2-2.15,8.42-2.99,12.68-2.84,14.47-5.6,28.97-8.35,43.46-.25,1.32-1.17,1.87-2.2,2.31-15.57,6.63-31.15,13.21-46.7,19.88-2.35,1.01-4.54,2.39-6.8,3.59,1.64,2.09,4.04,3.17,6.23,4.42,14.69,8.37,29.45,16.61,44.19,24.88,1.25.7,2.21,1.55,2.34,3.12.99,12.25,1.96,24.51,3.05,36.75.55,6.17,1.52,12.31,1.95,18.49.28,4.03,1.98,2.8,3.68,1.26,4.71-4.25,9.29-8.65,13.96-12.95,8.87-8.17,17.77-16.29,26.63-24.47,1.14-1.05,2.26-1.24,3.74-.89,9.78,2.32,19.57,4.58,29.37,6.82,8.35,1.9,16.72,3.75,25.34,5.68ZM167.66,672c-.21-.62-.38-.97-.45-1.33-3.68-17.75-7.3-35.51-11.08-53.23-.55-2.58-.29-4.48,1.68-6.38,2.86-2.76,5.38-5.87,8.15-8.74,8.91-9.25,17.87-18.44,26.79-27.68,1.03-1.07,1.9-2.3,2.85-3.46.46-.56,1.29-1.05,1.01-1.85-.38-1.09-1.48-.63-2.29-.71-7.65-.82-15.3-1.58-22.95-2.43-10.35-1.15-20.68-2.5-31.05-3.44-2.76-.25-4.23-1.26-5.46-3.6-5.16-9.81-10.46-19.56-15.73-29.31-3.01-5.58-6.01-11.17-9.13-16.69-.7-1.24-1.21-3.29-2.68-3.31-1.64-.02-1.6,2.24-2.43,3.41-.14.2-.22.45-.32.67-7.15,16.16-14.31,32.31-21.43,48.49-.68,1.53-1.67,2.25-3.34,2.53-5.26.88-10.5,1.93-15.74,2.93-13.16,2.49-26.33,4.99-39.49,7.47-.71.13-1.59-.06-1.85.88-.2.7.35,1.08.82,1.52,4.79,4.36,9.53,8.78,14.33,13.12,9.23,8.34,18.5,16.64,27.73,24.98.89.8,1.71,1.54,1.48,3.14-1.43,9.7-2.67,19.42-4,29.13-1.24,9.1-2.52,18.19-3.77,27.29-.1.73-.31,1.63.35,2.1.76.55,1.34-.29,1.96-.64,5.63-3.19,11.29-6.33,16.9-9.56,10.68-6.15,21.35-12.31,31.97-18.55,1.54-.9,2.76-.65,4.19.03,8.55,4.06,17.14,8.06,25.68,12.14,8.08,3.86,16.12,7.83,24.2,11.7,1.13.54,2.74,1.98,3.11-.59ZM407.32,427.27c0-1.37.06-2.75-.02-4.12-.05-.78.53-1.98-.64-2.2-.74-.14-1.75.25-2.42.71-8.33,5.73-16.6,11.54-24.92,17.27-6.72,4.63-13.49,9.19-20.25,13.76-1,.67-1.82,1.53-3.34.92-10.72-4.28-21.47-8.51-32.25-12.66-6.71-2.59-13.46-5.04-20.21-7.53-2.09-.77-3.12-.44-2.34,2.15.89,2.96,1.48,6.02,2.34,9,3.62,12.49,7.49,24.9,10.83,37.46,1.05,3.94,3.62,8.18,0,12.39-5.08,5.91-9.96,12-14.93,18.01-6.32,7.65-12.68,15.28-18.92,23.01-.69.86-2.1,1.85-1.35,3.22.73,1.34,2.27.72,3.43.69,17.19-.46,34.35,1.18,51.55.83.86-.02,1.75.03,2.59.21,1.73.38,3.35,1.04,4.37,2.62,3.13,4.86,6.29,9.71,9.35,14.62,6.48,10.41,12.97,20.8,19.98,30.87.52.74.82,2.15,1.94,1.94,1.2-.22,1.41-1.57,1.73-2.66,1.52-5.2,3.74-10.15,5.58-15.23,3.91-10.82,8.08-21.54,11.66-32.48.89-2.72,1.19-5.97,5.31-6.69,5.72-1,11.34-2.6,16.96-4.12,7.37-1.99,14.64-4.42,22.08-6.15,4.68-1.08,9.34-2.12,13.92-3.57,2.11-.67,2.45-1.33.5-2.8-3.15-2.38-6-5.16-9.24-7.39-10.28-7.08-19.17-15.96-29.62-22.77-5.5-3.59-7.68-8.2-6.64-14.73,2.34-14.75,1.01-29.77,2.99-44.56ZM210.54,367.11c5.49,0,10.97.02,16.46-.02.93,0,2.14.39,2.62-.83.4-1-.7-1.43-1.07-2.15-2.6-4.9-6.42-8.91-9.49-13.46-2.79-4.13-5.54-8.38-8.9-12.03-2.35-2.56-2.66-5.38-1.74-7.9,3.21-8.82,6.05-17.78,9.88-26.37,2.43-5.44.88-7.45-4.89-7.71-3.54-.16-5.91,2.97-9,2.92-5.14-.09-8.89,3.51-13.69,4.25-4.21.65-8.4,3.49-12.58,1.31-4.51-2.35-9.23-4.67-12.73-8.55-2.78-3.09-6.2-5.34-9.44-7.82-1.84-1.41-4.39-2.21-6.29-1.66-2.22.64-1.33,3.45-1.34,5.36-.06,9.11-.03,18.21-.05,27.32,0,1.46-.32,2.79-.84,4.25-1.18,3.28-4.53,3.05-6.46,4.87-6.56,6.18-14.95,9.74-21.79,15.51-.91.76-2.55.86-2.13,2.52.37,1.47,1.6,1.94,3.08,2.26,3.78.84,7.47,2.27,11.05,3.55,5.23,1.87,10.67,3.32,15.67,5.65,1.93.9,5.37-.28,5.92,3.18.95,5.91,5.01,10.84,5.38,16.91.28,4.69,4.25,8.28,3.69,13.25-.33,2.89,3.16,3.94,3.73,6.56.07.33,1.49.35,1.62-.18.45-1.9,2.29-2.32,3.33-3.53,4.56-5.28,6.91-12.24,12.6-16.67,1.19-.93,1.39-2.37,1.91-3.54,2.39-5.28,6.38-7.48,12.04-7.3,4.48.14,8.98.03,13.46.04ZM117.16,410.36c-.99,7.28.2,13.62.73,19.87.44,5.3-.2,10.69,1.16,15.95.79,3.02-.41,5.55-2.96,7.5-4.9,3.74-9.74,7.56-14.57,11.39-3.65,2.9-7.28,5.83-10.86,8.82-2.01,1.68-1.97,3.05.84,3.75,5.39,1.34,10.75,2.79,16.16,4.07,5.87,1.39,11.79,2.62,17.67,3.99,1.54.36,2.36,1.41,2.98,2.99,3.87,9.99,7.62,20.01,11.08,30.15.62,1.82.8,4.65,2.63,5.05,2.44.54,1.87-2.67,2.94-4.04,6.61-8.42,10.69-18.47,17.13-27.03,1.3-1.73,2.37-3.03,4.71-2.91,7.47.38,14.88-.85,22.36-.9,3.92-.03,7.91-.53,11.89-.59.91-.01,1.78-.15,2.26-1.02.43-.76.07-1.29-.48-1.94-6.55-7.89-12.9-15.97-19.98-23.4-3.77-3.95-4.42-8.02-2.64-13.24,2.69-7.94,4.66-16.13,6.88-24.23.59-2.14,2.04-5.3,1.16-6.31-1.53-1.75-3.84.93-5.95,1.21-.62.08-1.33,0-1.83.28-7.15,3.98-15.04,6.25-22.47,9.59-2.59,1.16-5.55,3.29-8.75,1.75-2.09-1.01-3.94-2.53-5.91-3.8-8.56-5.55-17.13-11.09-26.19-16.96ZM389.43,328.61c.29-1.85-.81-2.01-3.01-.88-7.61,3.89-15.61,7.15-22.82,11.67-7.21,4.53-13.61,4.92-20.32-.27-.39-.3-.79-.61-1.23-.85-7.06-3.86-14.14-7.7-21.18-11.59-.92-.51-1.8-1.07-2.76-.48-.87.54-.63,1.57-.5,2.4.87,5.5,1.97,10.98,2.62,16.5.7,6.04,2.39,11.93,2.56,18.04.05,1.69-.04,3.29-1.64,4.29-2.9,1.81-4.96,4.52-7.39,6.83-5.96,5.66-11.89,11.35-17.8,17.05-.59.57-1.54,1.05-1.26,2.09.2.76,1,.55,1.58.66,11.35,1.95,22.68,4.08,34.07,5.73,2.84.41,4.06,1.59,5.13,3.9,4.61,9.9,9.31,19.76,14.02,29.62.46.97.65,2.4,1.94,2.53,1.43.14,1.59-1.36,2.07-2.29,5.07-9.79,10.07-19.61,15.2-29.36.75-1.43,1.38-3.15,3.58-3.42,11.43-1.42,22.85-2.96,34.28-4.45,1.2-.16,2.8.31,3.35-1.06.57-1.43-1-2.12-1.83-2.95-7.8-7.88-15.62-15.73-23.49-23.54-1.41-1.4-2.44-2.78-1.84-4.91,1.53-5.5,1.82-11.23,3.27-16.78,1.5-5.74,2.19-11.69,3.4-18.47ZM367.45,199.81c-.15-.58.91-2.36-.47-3.11-1.56-.84-2.67.93-3.85,1.69-9.2,5.88-18.37,11.79-27.45,17.84-1.71,1.14-3.12,1.13-4.86.43-10.51-4.22-21.03-8.4-31.56-12.56-.97-.38-1.96-1.56-3.04-.58-.92.85.04,1.88.28,2.78,3.01,11.15,6.02,22.3,9.19,33.4.52,1.81.25,2.94-.94,4.34-7.47,8.82-14.85,17.73-22.25,26.61-.68.82-2,1.51-1.4,2.78.6,1.25,2,.69,3.06.72,10.21.32,20.41.61,30.62.85,3.79.09,6.67,1.16,8.81,4.79,5.44,9.2,11.3,18.16,17.02,27.2.56.88.66,2.42,2.12,2.24,1.21-.15,1.12-1.55,1.44-2.41,3.41-9.07,6.86-18.12,10.03-27.27,1.73-4.98,3.89-8.96,9.95-9.37,2.55-.17,5.03-1.35,7.56-1.99,7.34-1.87,14.69-3.72,22.05-5.54,2.32-.57,2.71-1.48.77-3.07-.58-.47-1.09-1.03-1.68-1.48-8.38-6.43-16.7-12.92-24.88-19.61-2.15-1.76-2.81-3.45-2.63-6,.74-10.66,1.39-21.33,2.11-32.69ZM269.17,517.97c-1.76,1.39-3.25,2.5-4.66,3.69-7.79,6.56-15.61,13.08-23.3,19.76-1.93,1.68-3.75,2.04-6.14,1.39-10.66-2.9-21.35-5.72-32.04-8.48-1.1-.28-2.39-1.57-3.43-.35-.86,1.01.3,2.08.71,3.07,3.97,9.77,7.93,19.55,12.01,29.28,1.35,3.23,1.37,5.98-.75,9.06-6.18,9.01-12.31,18.06-17.94,27.44-1.2,2.01-.95,2.63,1.34,2.5,4.71-.27,9.48-.16,14.12-.9,5.06-.8,10.17-.3,15.22-1.21,5.3-.95,10.31-.76,13.15,5.31,1.18,2.51,3.51,4.48,5.29,6.71,4.43,5.52,8.83,11.07,13.31,16.55.58.71,1.16,1.87,2.31,1.59,1.06-.26.74-1.47.93-2.25,2.48-10.13,5.02-20.25,7.27-30.43.88-3.97,2.6-6.61,6.61-8.05,10.03-3.61,19.94-7.54,29.89-11.35.8-.31,1.88-.42,2.08-1.35.26-1.2-.89-1.7-1.7-2.19-9.67-5.88-19.35-11.73-29.04-17.55-1.29-.78-2.56-1.35-2.65-3.23-.42-9.06-1.01-18.12-1.42-27.18-.17-3.84.13-7.7-1.17-11.83ZM65.88,88.95c4.15,3.2,8.63,4.73,12.75,6.88,7.37,3.85,14.82,7.53,22.25,11.27.95.48,1.58,1.12,1.71,2.25.74,6.52,1.55,13.04,2.28,19.56.53,4.68,1.83,9.25,1.67,14.04-.04,1.26.64,2.98,1.86,3.48,1.41.58,1.89-1.21,2.73-2.04,7.78-7.69,15.59-15.34,23.36-23.05,1.49-1.48,2.79-2.25,5.2-1.76,10.07,2.05,20.2,3.84,30.35,5.45,1.75.28,3.98,1.82,5.31.4,1.65-1.76-1.21-3.14-1.46-4.86-.19-1.3-.81-2.3-1.48-3.36-5-7.84-8.61-16.41-12.77-24.68-1.22-2.43-.73-4.36.53-6.63,5.31-9.67,10.44-19.45,15.59-29.21.36-.69,1.28-1.56.35-2.3-.48-.38-1.44-.36-2.13-.25-10.88,1.75-21.79,3.35-32.61,5.43-3.3.64-5.34-.04-7.51-2.41-7.39-8.06-14.95-15.98-22.46-23.93-.65-.69-1.27-1.79-2.44-1.32-1.1.44-.95,1.6-1.1,2.59-1.72,11.26-3.52,22.51-5.15,33.78-.3,2.07-.98,3.27-3,4.16-4.97,2.18-9.81,4.67-14.68,7.07-6.29,3.09-12.57,6.2-19.13,9.44ZM371.68,45.06c-4.14-.07-4.75.76-3.31,3.61,4.24,8.33,8.26,16.82,12.87,24.9,3.28,5.74,2.44,9.97-.45,15.07-4.63,8.16-8.86,16.54-13.26,24.83-.48.9-.97,1.92-.33,2.82.78,1.1,1.8.16,2.72.01,10.63-1.77,21.25-3.58,31.89-5.24,1.76-.27,3.79-.71,5.33.86,3.29,3.36,6.58,6.73,9.83,10.13,5.06,5.29,10.1,10.59,15.12,15.91,1.92,2.03,2.49.48,2.8-1.1.28-1.45.11-2.99.33-4.46,1.15-7.59,2.46-15.16,3.51-22.76.78-5.65,1.1-11.25,7.94-13.49,9.34-3.07,17.65-8.47,26.65-12.35,2.28-.98,2.64-2.27.06-3.89-4.94-3.1-10.4-5.1-15.48-7.87-5.09-2.77-10.21-5.51-15.34-8.21-1.79-.94-2.24-2.37-2.37-4.28-.74-11.14-2.88-22.1-4.41-33.14-.13-.95.08-2.1-1.36-2.26-1.12-.12-1.9.47-2.55,1.27-.78.97-1.46,2.01-2.29,2.93-5.93,6.55-12.72,12.25-18.47,19-2.67,3.14-6.07,4.3-10.62,3.2-8.54-2.05-17.27-3.28-25.92-4.86-1.21-.22-2.42-.52-2.9-.63ZM370.51,616.54c4.32,10.64,8.19,20.71,12.52,30.58,2.1,4.77,2.71,8.59-.78,13.27-5.92,7.96-10.99,16.56-16.42,24.89-.52.8-1.58,1.56-.84,2.62.65.94,1.84.57,2.79.51,2.1-.14,4.14-.65,6.27-.78,8.91-.55,17.8-1.31,26.69-2.08,2.15-.19,3.7.21,5.17,2.06,7.17,9.05,14.51,17.97,21.8,26.93.51.63.82,1.75,1.93,1.41,1.09-.33.71-1.44.91-2.24,2.73-11.22,5.5-22.43,8.18-33.67.39-1.62,1.12-2.56,2.72-3.15,5.49-1.99,10.94-4.12,16.39-6.23,6.3-2.44,12.57-4.93,19.63-7.7-9.5-5.78-18.15-11.36-27.11-16.37-5.27-2.95-8.77-5.98-8.04-12.89.78-7.39-.92-14.87-.68-22.36.1-3.11-.67-6.25-1.11-9.97-9.34,7.91-18.29,15.37-27.09,23-2.25,1.95-4.22,3.1-7.32,2.01-3.86-1.35-7.89-2.2-11.84-3.28-7.71-2.12-15.42-4.26-23.77-6.57ZM453.3,168.57c-2.69-2.14-5.85-1.72-8.78-2.36-4.62-1.02-9.19-1.39-13.86-1.37-.45,0-1.16-.2-1.31-.52-1.39-2.95-4.7-4.33-5.84-7.61-1.39-3.98-2.91-7.94-5.65-11.33-.7-.86-1.13-1.51-2.23-1.46-.85.04-2.05-.12-2.12,1.01-.28,4.19-3.78,6.72-5.21,10.38-1.04,2.67-1.82,5.59-3.34,8.01-2.61,4.14-7.48,3.58-11.5,4.43-2.99.63-6.21.11-9.33.15-2.64.03-3.91,2.09-4.97,3.94-.66,1.15.72,2.51,1.65,3.05,5.46,3.16,9.18,8.2,13.67,12.4,2.52,2.36,2.88,5.44,2.06,8.63-1.45,5.68-2.3,11.44-2.67,17.27-.05.82-.25,1.82.76,2.31,1.13.55,1.79-.25,2.6-.87,3.11-2.37,6.23-4.97,9.94-6.09,2.14-.65,4.12-1.32,5.31-2.97,1.71-2.38,4.32-2.46,5.97-1.51,5.63,3.25,12.62,3.42,17.59,8.09,1.23,1.16,2.93.94,4.4-.3,1.39-1.17,1.22-2.03.21-3.41-.56-.77-.24-2.16-.41-3.26-.64-3.96-.85-8.07-2.12-11.82-1.31-3.86-1.27-6.75,1.93-9.62,5.03-4.52,10.35-8.87,13.25-15.19ZM82.72,338.24c-1.07.18-1.2.86-1.48,1.38-3.38,6.09-6.92,12.1-10.04,18.31-1.62,3.23-4.05,3.81-7.23,4.03-6.06.41-12.1,1.12-18.14,1.85-.88.11-2.24-.13-2.65.94-.43,1.14.83,1.68,1.47,2.36,4.69,5,9.36,10.01,14.16,14.9,1.57,1.6,1.96,3.01,1.4,5.29-1.67,6.87-2.53,13.93-4.52,20.75-.24.83-.55,1.85.08,2.52,1.05,1.11,1.75-.31,2.53-.67,6.34-2.88,12.69-5.75,18.92-8.86,2.09-1.04,3.68-.83,5.55.27,5.88,3.5,11.81,6.91,17.74,10.34.72.42,1.48,1.24,2.36.73.91-.53.54-1.61.44-2.41-.82-6.77-1.55-13.57-2.65-20.3-.43-2.65.01-4.42,2.1-6.17,5.05-4.24,9.92-8.7,14.82-13.1.8-.72,2.1-1.37,1.85-2.6-.25-1.19-1.7-.79-2.57-.99-3.38-.78-6.86-1.14-10.22-2-6.42-1.64-14.61-.44-16.4-9.85-.16-.84-.52-1.67-.9-2.45-2.33-4.73-3.7-9.93-6.62-14.27ZM188.09,78.91c6.89-3.28,13.42-6.25,19.82-9.48,2.99-1.51,5.45-1.47,8.34.4,5.53,3.58,11.3,6.79,16.98,10.12.62.36,1.29.97,2.05.6.69-.33.4-1.04.31-1.65-.88-6.13-1.73-12.27-2.6-18.4-.63-4.44.02-7.95,4.28-10.9,4.66-3.22,8.46-7.68,12.72-11.5,2.07-1.85,1.56-2.76-.88-3.25-6.69-1.34-13.34-2.86-20.08-3.89-2.31-.35-3.56-1.14-4.44-3.18-2.85-6.63-5.81-13.22-8.72-19.82-.24-.54-.15-1.35-.9-1.49-.93-.17-1.24.65-1.6,1.28-3.12,5.52-6.68,10.85-9.2,16.64-1.87,4.3-4.66,5.55-8.86,5.72-5.69.22-11.3,1.51-17.02,1.67-2.22.06-3.96.91-1.3,3.48,3.39,3.27,6.15,7.24,9.76,10.22,5.2,4.28,7.52,8.9,4.42,15.4-.52,1.09-.64,2.4-.77,3.63-.49,4.64-2.69,9.03-2.31,14.41ZM299.93,300.31c-1.46-.03-2.53.94-3.76,1.48-5.7,2.45-11.42,4.85-17.07,7.41-2.67,1.22-4.81.84-7.24-.82-5.51-3.77-11.23-7.24-16.86-10.85-.53-.34-1.01-.79-1.67-.41-.73.42-.92,1.1-.82,1.91.64,4.9,1.27,9.81,1.89,14.72.72,5.73.71,10.99-5.14,14.69-3.95,2.5-7.29,5.96-10.88,9.01-1.13.96-3,1.92-2.8,3.26.23,1.59,2.45,1.26,3.77,1.59,6.36,1.61,12.77,3.03,19.17,4.48,1.11.25,2.18.33,2.71,1.61,2.74,6.62,5.56,13.2,8.25,19.84.41,1.01.3,2.65,1.36,2.83,1.38.24,1.85-1.43,2.4-2.44,3.14-5.73,6.4-11.4,10.04-16.83,1.06-1.59,1.75-3.37,4.36-3.47,7.06-.28,14.1-.92,21.14-1.44.81-.06,1.94.4,2.28-.7.3-.97-.73-1.47-1.28-2.1-4.7-5.45-9.34-10.96-14.16-16.31-1.33-1.48-1.14-2.69-.69-4.37,1.64-6.21,3.09-12.48,4.58-18.73.34-1.41,1.18-2.8.39-4.36ZM411.17,280.6c-.53,1.93.86,4.16-1.1,5.69-2.46,1.92-4.37,4.4-6.92,6.26-3.5,2.55-6.75,5.48-10.02,8.33-.76.66-2.48,2.07-.03,2.46,6.23.99,12.16,3.22,18.46,3.99,2.86.35,6.33.75,7.41,4.49,1.79,6.2,4.67,11.96,6.99,17.95.38.98.66,1.97,1.87,2.02,1.2.05,1.55-.9,2-1.86,2.87-6.08,6.66-11.62,10.27-17.26.94-1.47,1.98-2.28,3.81-2.54,6.53-.92,13.16-.2,19.65-1.44,1.15-.22,2.79.65,3.35-.82.61-1.59-1.12-2.3-1.96-3.29-4.33-5.12-8.67-10.22-13.06-15.29-.89-1.03-1.58-2.17-.89-3.37,1.56-2.69,1.34-5.78,2.21-8.63,1-3.29,1.51-6.73,2.58-10.05,1.17-3.61-.12-4.73-3.58-3.33-5.98,2.41-11.88,5.04-17.78,7.67-1.43.64-2.39.77-3.99-.09-5.68-3.08-11.02-6.67-16.31-10.33-1.27-.87-2.64-1.97-4-1.34-1.2.55-.61,2.29-.52,3.45.45,5.81,1.03,11.6,1.56,17.34ZM75.65,490.34c.27-2.56-.78-2.88-3.06-1.87-5.78,2.58-11.71,4.85-17.44,7.55-2.71,1.28-4.78.91-7.11-.68-4.9-3.33-9.82-6.64-14.91-9.66-3.77-2.24-4.06-2.02-3.82,2.31.34,6.31,1.61,12.54,1.51,18.89-.04,2.26-.64,3.88-2.41,5.49-4.77,4.36-9.76,8.43-14.78,12.48-.76.62-1.68,1.26-1.36,2.44.3,1.12,1.42.82,2.21,1.01,6.97,1.69,13.95,3.39,20.95,4.95,1.4.31,2.19.94,2.69,2.2,2.47,6.22,4.98,12.43,7.45,18.66.4,1.02.39,2.57,1.54,2.75,1.18.19,1.66-1.31,2.18-2.21,1.42-2.43,2.13-5.48,3.57-7.57,2.57-3.71,5.56-7.12,7.54-11.25.35-.72,1.15-.86,1.93-.92,6.92-.5,13.84-.99,20.75-1.54,1.16-.09,2.8.69,3.36-.7.48-1.19-.74-2.24-1.56-3.17-3.86-4.35-7.69-8.74-11.59-13.05-1.91-2.11-3.15-4.16-2.18-7.29,1.21-3.89,2.03-7.93,2.71-11.95.4-2.35,2.06-4.31,1.83-6.88ZM228.46,695.09c4.46.22,7.76-.7,9.95,2.5.27.39,1.14.59,1.69.53,2.31-.25,3.81,1.03,5.65,2.15,1.55.94,3.65,3.2,5.68,1.53,1.6-1.31,2.29-3.73,1.39-5.87-2.26-5.41-2.98-11.01-2.8-16.83.06-1.91.57-3.34,1.96-4.58,4.12-3.65,7.06-8.34,10.78-12.35,1.22-1.32,1.72-3.6-.49-4.22-2.88-.81-5.69-2.1-8.93-1.77-3.58.37-7.22.09-10.84.05-1.06-.01-2.27.29-2.79-1.2-2.28-6.57-6.63-12.02-9.83-18.1-.95-1.8-2.57-2.7-4.11.09-1.58,2.87-3.22,5.59-4.36,8.77-1.22,3.4-1.95,7.87-5.73,9.49-3.75,1.61-7.58,3.8-11.7,3.81-3.58,0-6.77,1.13-10.11,1.86-1.96.43-2.89,1.52-.86,3.3,4.51,3.97,8.13,8.91,13.43,12.04,2.62,1.54,4.37,7.42,2.81,10.06-1.07,1.81-.95,3.52-1.06,5.34-.16,2.54.4,5.1-1.23,7.56-.76,1.14-.87,3.3.4,4.55.76.75,2.59.82,3.13.03,2.54-3.7,7.32-3.38,10.23-5.89,2.87-2.48,5.74-3.08,7.73-2.84ZM21.05,76.15c-.06,5.83,1.26,6.74,5.52,4.4,2.77-1.52,5.25-3.66,8.13-4.88,3.23-1.37,5.69-3.97,9.91-3.96,4.45,0,7.39,2.39,10.73,4.12,1.51.78,3.69-.32,4.75,2.15.81,1.89,3.07,3.52,5.33,2.51,2.65-1.18,2.64-4.11,1.65-6.18-.87-1.8-.72-3.58-1.23-5.28-1.08-3.59-.53-7.61-1.76-10.79-1.69-4.37.86-5.44,3.26-7.17.47-.34,1.05-.41,1.45-1,2.85-4.19,6.18-7.97,9.96-11.37,1-.9.9-2.55-.56-2.45-3.43.23-6.24-2.44-9.71-1.71-4.51.95-8.57-2.13-13.07-1.56-.66.08-1.03-.46-1.37-1.05-3.45-5.95-6.97-11.87-10.38-17.84-.48-.84-.41-2-1.82-1.93-1.37.07-1.24,1.37-1.79,2.12-2.64,3.62-5.22,7.84-6.12,11.72-1.14,4.88-2.88,7.1-7.36,8.55-1.67.54-3.19,1.65-5.1,1.49-4.63-.37-8.81.94-13.11,2.61-3.61,1.4-2.04,3.07-.58,4.12,5.12,3.71,9.46,8.24,13.9,12.66,2.34,2.32,3.26,7.27,1.83,10.25-1.72,3.58-.63,7.76-2.47,10.45ZM422.12,401.84c.47,1.45-.45,3.02.71,3.8,1.5,1.02,1.97-.91,2.94-1.48,1.18-.68,2.5-1.12,3.73-1.71,3.22-1.54,6.21-3.56,9.19-5.45,2.01-1.27,3.31-1.57,5.32-.73,5.38,2.24,10.54,4.91,15.63,7.71.82.45,1.62.83,2.44.31.74-.46.74-1.37.4-2.03-2.12-4.17-1.65-8.95-3.26-13.29-1.67-4.49-1.52-8.63,2.84-12.33,2.95-2.5,5.36-5.82,8.21-8.59.71-.69,1.55-1.38,1.21-2.55-.41-1.38-1.62-1.27-2.74-1.41-5.53-.7-11.06-1.42-16.58-2.2-1.65-.23-3.12-.86-3.72-2.67-1.74-5.24-5.81-9.25-7.54-14.5-.33-.99-.99-1.88-2.01-2.02-1.36-.2-1.35,1.12-1.76,1.99-2.23,4.67-4.47,9.31-6.08,14.27-.78,2.4-2.31,4.29-5.63,4.59-5.37.47-10.66,1.8-15.98,2.78-.69.13-1.59-.04-1.87.89-.26.86.24,1.45.91,1.86,5.22,3.26,8.87,8.34,13.8,11.94,1.47,1.07,2.34,2.26,1.7,4.41-1.61,5.41-.19,11.18-1.85,16.38ZM46.35,354.23c1.69-6.9,3.28-12.75,4.51-18.68.51-2.44,1.31-3.98,3.83-4.85,4.81-1.68,9.48-3.75,14.22-5.62,1.99-.79,2.93-1.53.46-3.07-4.53-2.83-8.92-5.89-13.48-8.67-2.07-1.26-2.72-2.81-2.75-5.19-.07-5.09.69-10.23-.6-15.26-.23-.89.41-2.28-.92-2.54-.96-.19-1.84.6-2.58,1.29-3.65,3.37-7.37,6.66-10.91,10.14-1.44,1.42-2.7,1.69-4.63,1.1-4.87-1.48-9.82-2.68-14.74-4-1.05-.28-2.2-1.22-3.13-.24-.83.88.27,1.82.6,2.7,1.67,4.42,3.4,8.83,5.1,13.24,1.07,2.76,1.41,5.23-.66,7.98-2.84,3.76-5.1,7.95-7.59,11.97-1.21,1.96-1.66,3.61,1.65,3.37,4.83-.36,9.68-.5,14.46-1.2,2.6-.38,4.09.15,5.62,2.32,3.41,4.86,7.16,9.49,11.53,15.22ZM309.88,69.1c5.77-3.21,11.06-5.17,15.65-8.46,1.33-.95,3.3-1.19,4.22-.27,3.38,3.39,9.19,1.94,12.05,6.46.9,1.43,3.53,1.16,4.85.24,1.46-1.01.48-2.69-.04-4.31-1.06-3.32-1.65-6.83-2.14-10.3-1.09-7.75,5.31-11.27,9.43-16.02.75-.87,2.96-.49,2.35-2.59-.61-2.06-2.28-2.39-4.16-2.33-4.72.15-9.13-2.23-13.94-1.61-1.3.17-2.25-.99-2.62-2.28-.49-1.69-1.61-2.82-3.13-3.49-.92-.41-1.58-.92-1.39-1.9.53-2.85-1.19-4.59-2.83-6.49-.6-.7-.64-2.2-1.9-1.86-1.12.3-2.63,1-2.62,2.33.02,2.28-1.37,3.54-2.56,5.13-.99,1.33-1.8,3.03-2,4.66-.38,3.15-2.63,4.26-4.94,5.46-3.54,1.83-7.37,1.76-11.17,1.53-2.01-.12-3.58.69-5.25,1.51-1.54.76-1.43,1.84-.29,2.53,4.41,2.7,7.02,7.56,11.32,10.06,4.37,2.54,3.32,6.34,2.33,8.87-1.68,4.27-.52,8.27-1.19,13.12ZM457.89,563.19c-.29-1.03-1.15-1.12-2.04-1.24-3.68-.51-7.35-1.11-11.03-1.56-2.69-.33-4.56-1.46-5.58-4.16-1.23-3.25-2.83-6.36-4.21-9.56-.3-.7-.47-1.54-1.27-1.7-1.09-.23-1.43.74-1.86,1.49-1.93,3.34-3.94,6.63-5.74,10.04-.84,1.58-1.74,2.39-3.67,2.51-4.44.28-8.86.94-13.3,1.39-1.7.17-2.03.83-.85,2.06,1.98,2.07,3.89,4.25,6.08,6.07,3.35,2.79,5.1,5.81,3.48,10.32-.95,2.66-1.25,5.56-1.9,8.34-.23.97-.82,2.05.14,2.76.95.7,1.89-.2,2.75-.62,3.13-1.51,6.27-3.01,9.33-4.66,2.28-1.23,4.24-1.46,6.56.17,2.93,2.05,6.17,3.66,9.28,5.44,1.89,1.08,3.18.92,2.91-1.66-.31-2.96-.57-5.94-1.2-8.83-.68-3.1-.19-5.55,2.39-7.61,2.91-2.32,5.64-4.87,8.48-7.29.56-.48,1.32-.76,1.26-1.7ZM53.95,628.55c-.01-1.04-.1-2.26-1.44-2.16-3.63.28-6.75-2.48-10.47-1.63-.78.18-2.16.08-2.45-.39-2.24-3.57-6.72-5.78-6.63-10.79.02-1.3-.7-2.09-2.04-2.21-1.23-.11-2.11.11-2.45,1.6-.86,3.77-3.78,6.68-4.48,10.53-.16.9-.93,1.01-1.49,1.46-2.42,1.93-5.25,1.02-7.9,1.4-2.68.39-5.72,1.18-6.67,3.85-.95,2.68,2.12,2.99,3.8,4.08,5.32,3.46,8.37,11.08,5.7,15.6-1.65,2.8-.26,4.47,1.15,5.82,1.55,1.48,3.23.07,4.9-1.02,4.56-2.96,9.17-6.05,14.83-1.78,1.22.92,2.63,1.72,3.9,2.69,1.3,1,2.82,1.03,4.11-.04.79-.66,2.22-1.48,1.27-2.69-1.17-1.5-.92-3.31-1.61-4.89-2.14-4.9-1.41-8.57,2.33-12.34,1.57-1.59,3.07-3.26,4.71-4.77.74-.68.94-1.41.93-2.31ZM137.44,690.21c.09-.96-.8-1.19-1.37-1.55-2.83-1.8-5.61-3.72-8.6-5.22-2.74-1.38-4.09-3.11-4-6.34.1-3.7-.96-7.39-.66-11.14.05-.59.15-1.33-.49-1.68-.88-.48-1.34.34-1.86.8-2.42,2.13-4.86,4.26-7.23,6.45-2.46,2.28-4.98,3.35-8.42,1.93-2.85-1.18-5.98-1.62-8.93-2.6-2.83-.94-2.69.42-1.97,2.3,1.38,3.6,2.71,7.22,4.27,10.75.79,1.8.73,3.11-.49,4.77-2.42,3.31-4.44,6.9-6.74,10.29-1.08,1.59-.83,2.3,1.07,2.18,2.97-.18,5.94.27,8.92-.52,3.92-1.04,7.26-.18,9.58,3.6,1.36,2.21,3.03,4.26,4.79,6.17,2.46,2.68,3.34,2.45,4.14-1.18.8-3.63,1.19-7.33,2.4-10.89.56-1.66,1.53-2.65,3.03-2.92,3.98-.72,7.13-3.62,11.18-4.08.65-.07,1.14-.45,1.39-1.13ZM11.44,100.63c-1.95.19-1.75,1.39-1.34,2.46,1.32,3.46,2.58,6.95,4.18,10.29.92,1.92,1.03,3.41-.26,5.16-2.18,2.98-4.16,6.11-6.3,9.13-1.29,1.83-1.01,2.76,1.33,2.68,2.11-.07,4.21.13,6.32-.4,5.37-1.35,9.68,0,12.54,5.08,1.16,2.06,2.6,3.97,4.42,5.52.65.56,1.42,1.54,2.03,1.46,1.35-.17.67-1.61.96-2.48.75-2.24,1.24-4.52,1.66-6.87.7-3.94,2.57-7.05,7.1-7.9,2.78-.52,5.41-1.82,8.16-2.58,2.25-.62,2.14-1.24.45-2.56-2.17-1.69-4.51-3.04-6.94-4.3-3.97-2.05-6.88-4.72-6.11-9.9.38-2.56.14-5.24,0-7.85-.12-2.07-1.02-2.74-2.86-1.2-2.57,2.16-5.32,4.11-7.78,6.37-2.06,1.89-4.08,2.62-6.73,1.36-3.49-1.66-7.59-1.45-10.81-3.48ZM428.29,471.96c-.01,5.91.79,6.2,6.06,3.85,2.47-1.1,3.92-3.7,6.95-3.9,3.94-.26,7.41,1.09,11,2.3,1.79.6,3.61,3.26,5.17,1.75,1.77-1.72.72-4.69.5-7.12-.04-.45-.55-.83-.71-1.29-.78-2.17-.93-4.31.21-6.45,1.91-3.59,4.76-6.3,8.07-8.51.73-.49,1.66-.59,1.53-1.73-.16-1.42-1.28-1.31-2.26-1.32-2.12-.03-4.33.36-6.34-.11-3.71-.87-7.95-.58-9.86-5.49-1.1-2.83-3.78-5.06-5.88-7.45-.62-.7-1.78-.63-2.19.36-1.21,2.97-3.87,5.08-4.77,8.22-.44,1.54-1.7,2.2-2.98,3.06-2.62,1.75-5.47,1.09-8.22,1.5-2.25.34-5.96.59-4.88,3.81.58,1.75,1.96,4.79,5.25,5.18,3.27.39,6.01,5.63,4.38,8.39-1,1.69-.9,3.27-1.01,4.97ZM83.54,448.93c-2.68-2.71-5.95-2.8-9.07-2.32-4.44.68-7.02-1.79-9.34-4.78-1.03-1.32-1.51-3.06-2.26-4.6-.74-1.52-1.74-2.59-3.63-2.72-1.94-.12-2.08,1.26-2.63,2.5-.83,1.89-1.59,3.9-2.83,5.5-.96,1.25-.79,3.58-2.5,3.8-2.9.38-5.38,2.24-8.57,1.84-2.09-.26-5.66-1.45-6.29,1.05-.7,2.75,3.04,4.06,4.78,6.05.07.08.24.07.35.13,5.83,3.08,6.5,5.01,5.13,11.6-.51,2.43-1.4,5.99.58,7.39,1.8,1.27,4.22-1.35,6.29-2.58,2.57-1.54,5.47-3.5,8.44-2.62,3.21.95,6.74,1.29,9.55,3.3,1.4,1,2.75,1.51,4.03.44,1.42-1.18,1.32-3.31.55-4.51-2.23-3.53-.78-7.28-1.18-10.89-.1-.93.3-1.55,1.29-1.98,3.17-1.38,4.97-4.28,7.3-6.6ZM24.71,431.67c.68-.88,1.18-1.31,1.4-1.85,3.61-8.97,9.68-13.75,19.79-11.82.71.14,1.55.04,1.87-.85.34-.95-.15-1.6-.77-2.31-2.13-2.42-4.08-5.01-6.31-7.34-1.47-1.53-1.86-2.9-1.22-5,.86-2.81.82-5.85,2.31-8.54.4-.73.34-2.18-.14-2.85-.89-1.25-1.66.29-2.48.59-3.04,1.1-6.02,2.36-9.06,3.43-2.32.82-4.45.77-6.6-1.01-2.18-1.81-4.78-3.11-7.22-4.61-.63-.38-1.36-.82-2.09-.36-.81.5-.39,1.27-.28,2,.41,2.82.76,5.64,1.1,8.47.28,2.33-.07,4.4-2.08,6.02-2.49,2-4.87,4.13-7.26,6.25-1.74,1.54-1.7,2.68.84,3.17,2.56.49,5.08,1.23,7.66,1.53,3.45.4,5.45,2.37,6.18,5.49.78,3.35,2.86,6,4.36,9.59Z"/>
  <path class="cls-4" d="M.07,226.3c4.65-.98,8.01-4.33,11.85-6.71,10.5-6.52,20.6-13.67,31.33-19.84,2.83-1.63,4.73-3.57,4.94-7.67.68-13.17,1.15-26.34,1.45-39.52.11-4.82.55-9.67.61-14.52,0-.72-.16-1.57.62-2.02.98-.56,1.63.17,2.28.73,11.76,10.29,24.42,19.49,36.02,29.98,2.3,2.08,4.76,4,7.32,5.74,2.52,1.72,5.13.07,7.51-.59,10.62-2.92,21.1-6.33,31.74-9.15,5.63-1.49,10.97-4.01,16.83-4.66.92-.1,2.06-1.22,2.69-.11.38.67,0,1.94-.35,2.82-2.05,5.16-4.39,10.22-6.26,15.44-3.38,9.44-7.84,18.47-10.71,28.1-.28.93-.89,1.76-1.27,2.66-1.55,3.69-2.49,6.81.33,10.98,5.06,7.49,10.08,15.05,15.18,22.52,4.33,6.34,8.45,12.81,12.73,19.18.98,1.46,1.65,2.96,2.38,4.85-6.05-.42-11.85-.81-17.65-1.23-.49-.03-.97-.25-1.46-.27-12.91-.52-25.83-.99-38.74-1.57-2.28-.1-4.05.67-4.98,2.58-2.53,5.17-6.77,9.02-10.12,13.54-6.07,8.17-12.43,16.11-18.54,24.25-1.7,2.26-4.17,3.85-4.96,6.94-2.51-2.03-2.62-4.53-3.21-6.72-3.51-12.9-6.19-26.01-10.23-38.8-.91-2.89-1.77-6.1-1.95-9.31-.15-2.79-1.73-4.28-4.45-5.22-9.19-3.2-18.25-6.76-27.42-10.01-7.79-2.76-15.67-5.27-23.51-7.9,0-1.5,0-3,0-4.49Z"/>
  <path class="cls-6" d="M356.36,182.16c-8.63-1.93-16.99-3.77-25.34-5.68-9.8-2.23-19.59-4.5-29.37-6.82-1.49-.35-2.61-.16-3.74.89-8.86,8.18-17.76,16.3-26.63,24.47-4.67,4.3-9.25,8.7-13.96,12.95-1.7,1.54-3.4,2.78-3.68-1.26-.43-6.18-1.41-12.32-1.95-18.49-1.09-12.24-2.06-24.5-3.05-36.75-.13-1.58-1.09-2.42-2.34-3.12-14.74-8.27-29.5-16.52-44.19-24.88-2.19-1.25-4.59-2.33-6.23-4.42,2.26-1.21,4.45-2.59,6.8-3.59,15.55-6.67,31.14-13.25,46.7-19.88,1.03-.44,1.95-.99,2.2-2.31,2.75-14.49,5.5-28.98,8.35-43.46.84-4.26,1.88-8.49,2.99-12.68.71-2.68,1.95-.97,2.77-.05,4.3,4.83,8.53,9.72,12.8,14.57,8.13,9.23,16.27,18.44,24.39,27.68.87.99,1.98,1.04,3.08.91,9.86-1.1,19.71-2.2,29.56-3.38,8.86-1.06,17.71-2.22,26.57-3.29,2.07-.25,2.77.26,1.44,2.42-4.8,7.84-9.43,15.79-14.11,23.7-4.42,7.48-8.64,15.08-13.29,22.41-2.24,3.54-1.83,6.56-.18,10.04,7.16,15.18,14.24,30.4,21.19,45.68.56,1.22,3.29,3.84-.77,4.34Z"/>
  <path class="cls-1" d="M167.66,672c-.36,2.57-1.98,1.13-3.11.59-8.08-3.87-16.12-7.83-24.2-11.7-8.54-4.08-17.13-8.08-25.68-12.14-1.43-.68-2.65-.93-4.19-.03-10.62,6.24-21.29,12.41-31.97,18.55-5.61,3.23-11.27,6.38-16.9,9.56-.62.35-1.19,1.19-1.96.64-.66-.47-.45-1.37-.35-2.1,1.25-9.1,2.52-18.19,3.77-27.29,1.33-9.71,2.57-19.43,4-29.13.24-1.61-.59-2.34-1.48-3.14-9.23-8.34-18.5-16.64-27.73-24.98-4.8-4.34-9.54-8.76-14.33-13.12-.47-.43-1.02-.81-.82-1.52.26-.93,1.14-.74,1.85-.88,13.17-2.48,26.33-4.98,39.49-7.47,5.25-.99,10.48-2.04,15.74-2.93,1.67-.28,2.66-.99,3.34-2.53,7.12-16.17,14.28-32.33,21.43-48.49.1-.23.18-.47.32-.67.83-1.17.8-3.43,2.43-3.41,1.47.01,1.98,2.06,2.68,3.31,3.12,5.52,6.12,11.11,9.13,16.69,5.27,9.76,10.57,19.5,15.73,29.31,1.23,2.34,2.7,3.35,5.46,3.6,10.37.94,20.7,2.29,31.05,3.44,7.64.85,15.3,1.61,22.95,2.43.81.09,1.91-.38,2.29.71.28.81-.56,1.29-1.01,1.85-.94,1.16-1.81,2.39-2.85,3.46-8.92,9.24-17.88,18.44-26.79,27.68-2.76,2.87-5.29,5.97-8.15,8.74-1.97,1.9-2.23,3.8-1.68,6.38,3.77,17.73,7.4,35.49,11.08,53.23.08.36.24.71.45,1.33Z"/>
  <path class="cls-3" d="M407.32,427.27c-1.98,14.79-.64,29.81-2.99,44.56-1.04,6.53,1.14,11.14,6.64,14.73,10.45,6.82,19.35,15.69,29.62,22.77,3.24,2.23,6.09,5.02,9.24,7.39,1.95,1.47,1.61,2.13-.5,2.8-4.58,1.45-9.24,2.49-13.92,3.57-7.43,1.72-14.7,4.15-22.08,6.15-5.62,1.52-11.24,3.12-16.96,4.12-4.12.72-4.42,3.97-5.31,6.69-3.58,10.94-7.75,21.66-11.66,32.48-1.84,5.08-4.06,10.04-5.58,15.23-.32,1.09-.53,2.44-1.73,2.66-1.12.21-1.42-1.2-1.94-1.94-7-10.06-13.5-20.46-19.98-30.87-3.06-4.91-6.22-9.76-9.35-14.62-1.02-1.58-2.64-2.24-4.37-2.62-.84-.18-1.73-.23-2.59-.21-17.19.35-34.35-1.29-51.55-.83-1.16.03-2.7.65-3.43-.69-.75-1.37.66-2.37,1.35-3.22,6.24-7.72,12.6-15.35,18.92-23.01,4.97-6.01,9.85-12.09,14.93-18.01,3.62-4.21,1.05-8.45,0-12.39-3.34-12.56-7.21-24.98-10.83-37.46-.86-2.97-1.45-6.03-2.34-9-.78-2.58.25-2.92,2.34-2.15,6.74,2.49,13.5,4.94,20.21,7.53,10.77,4.16,21.52,8.38,32.25,12.66,1.52.61,2.35-.25,3.34-.92,6.76-4.58,13.53-9.13,20.25-13.76,8.32-5.73,16.59-11.54,24.92-17.27.67-.46,1.68-.85,2.42-.71,1.17.22.59,1.43.64,2.2.09,1.37.02,2.74.02,4.12Z"/>
  <path class="cls-2" d="M210.54,367.11c-4.49,0-8.98.11-13.46-.03-5.66-.18-9.65,2.02-12.04,7.3-.53,1.17-.72,2.61-1.91,3.54-5.69,4.43-8.04,11.39-12.6,16.67-1.04,1.21-2.88,1.63-3.33,3.53-.12.53-1.55.51-1.62.18-.57-2.62-4.06-3.67-3.73-6.56.56-4.97-3.41-8.56-3.69-13.25-.37-6.07-4.43-11-5.38-16.91-.55-3.46-3.99-2.28-5.92-3.18-5-2.34-10.44-3.78-15.67-5.65-3.58-1.28-7.27-2.72-11.05-3.55-1.48-.33-2.71-.8-3.08-2.26-.42-1.66,1.22-1.76,2.13-2.52,6.84-5.77,15.23-9.34,21.79-15.51,1.93-1.82,5.29-1.6,6.46-4.87.52-1.45.84-2.79.84-4.25.03-9.11-.01-18.21.05-27.32.01-1.91-.88-4.72,1.34-5.36,1.91-.55,4.46.25,6.29,1.66,3.24,2.48,6.66,4.73,9.44,7.82,3.5,3.89,8.22,6.2,12.73,8.55,4.18,2.18,8.37-.66,12.58-1.31,4.8-.74,8.55-4.34,13.69-4.25,3.08.05,5.45-3.07,9-2.92,5.78.26,7.32,2.27,4.89,7.71-3.83,8.59-6.67,17.56-9.88,26.37-.92,2.52-.61,5.34,1.74,7.9,3.36,3.65,6.11,7.89,8.9,12.03,3.07,4.55,6.9,8.57,9.49,13.46.38.71,1.47,1.14,1.07,2.15-.49,1.22-1.69.82-2.62.83-5.49.04-10.97.02-16.46.01Z"/>
  <path class="cls-4" d="M117.16,410.36c9.06,5.87,17.63,11.41,26.19,16.96,1.97,1.28,3.82,2.79,5.91,3.8,3.21,1.54,6.16-.58,8.75-1.75,7.43-3.34,15.32-5.61,22.47-9.59.51-.28,1.22-.19,1.83-.28,2.11-.28,4.42-2.96,5.95-1.21.88,1-.58,4.17-1.16,6.31-2.21,8.1-4.18,16.29-6.88,24.23-1.77,5.22-1.13,9.29,2.64,13.24,7.09,7.43,13.43,15.51,19.98,23.4.54.65.9,1.18.48,1.94-.49.87-1.36,1.01-2.26,1.02-3.97.06-7.96.57-11.89.59-7.48.05-14.89,1.29-22.36.9-2.35-.12-3.41,1.18-4.71,2.91-6.44,8.56-10.52,18.61-17.13,27.03-1.08,1.37-.51,4.57-2.94,4.04-1.82-.4-2.01-3.23-2.63-5.05-3.46-10.14-7.21-20.17-11.08-30.15-.61-1.58-1.44-2.64-2.98-2.99-5.88-1.37-11.79-2.59-17.67-3.99-5.4-1.28-10.77-2.72-16.16-4.07-2.82-.7-2.85-2.07-.84-3.75,3.58-2.99,7.2-5.92,10.86-8.82,4.83-3.83,9.67-7.65,14.57-11.39,2.55-1.94,3.74-4.48,2.96-7.5-1.37-5.26-.72-10.65-1.16-15.95-.52-6.26-1.72-12.59-.73-19.87Z"/>
  <path class="cls-6" d="M389.43,328.61c-1.21,6.79-1.91,12.73-3.4,18.47-1.45,5.55-1.74,11.28-3.27,16.78-.6,2.14.43,3.51,1.84,4.91,7.86,7.81,15.68,15.67,23.49,23.54.82.83,2.4,1.52,1.83,2.95-.55,1.37-2.15.9-3.35,1.06-11.43,1.49-22.84,3.03-34.28,4.45-2.2.27-2.83,1.99-3.58,3.42-5.14,9.75-10.14,19.57-15.2,29.36-.48.94-.64,2.44-2.07,2.29-1.29-.13-1.48-1.57-1.94-2.53-4.71-9.86-9.41-19.71-14.02-29.62-1.07-2.3-2.29-3.49-5.13-3.9-11.4-1.65-22.72-3.78-34.07-5.73-.59-.1-1.38.11-1.58-.66-.28-1.05.68-1.53,1.26-2.09,5.92-5.7,11.84-11.39,17.8-17.05,2.43-2.31,4.49-5.02,7.39-6.83,1.6-1,1.69-2.6,1.64-4.29-.17-6.11-1.85-12-2.56-18.04-.64-5.53-1.75-11-2.62-16.5-.13-.84-.37-1.86.5-2.4.96-.59,1.85-.03,2.76.48,7.04,3.89,14.12,7.73,21.18,11.59.43.24.83.55,1.23.85,6.71,5.19,13.12,4.79,20.32.27,7.21-4.53,15.2-7.78,22.82-11.67,2.2-1.13,3.3-.97,3.01.88Z"/>
  <path class="cls-1" d="M367.45,199.81c-.72,11.36-1.37,22.03-2.11,32.69-.18,2.55.48,4.24,2.63,6,8.18,6.69,16.5,13.18,24.88,19.61.59.45,1.11,1.01,1.68,1.48,1.94,1.59,1.55,2.5-.77,3.07-7.36,1.81-14.7,3.67-22.05,5.54-2.53.64-5.01,1.82-7.56,1.99-6.06.41-8.22,4.39-9.95,9.37-3.18,9.15-6.63,18.2-10.03,27.27-.32.86-.23,2.26-1.44,2.41-1.46.18-1.57-1.36-2.12-2.24-5.72-9.04-11.58-17.99-17.02-27.2-2.14-3.63-5.02-4.7-8.81-4.79-10.21-.25-20.42-.54-30.62-.85-1.05-.03-2.46.53-3.06-.72-.6-1.27.71-1.96,1.4-2.78,7.4-8.88,14.78-17.79,22.25-26.61,1.19-1.4,1.45-2.53.94-4.34-3.17-11.1-6.17-22.25-9.19-33.4-.24-.89-1.21-1.93-.28-2.78,1.08-.99,2.08.19,3.04.58,10.53,4.16,21.05,8.35,31.56,12.56,1.74.7,3.15.71,4.86-.43,9.08-6.05,18.26-11.97,27.45-17.84,1.18-.75,2.29-2.52,3.85-1.69,1.38.74.33,2.53.47,3.11Z"/>
  <path class="cls-6" d="M269.17,517.97c1.29,4.13.99,8,1.17,11.83.41,9.06,1,18.12,1.42,27.18.09,1.89,1.36,2.46,2.65,3.23,9.69,5.83,19.38,11.68,29.04,17.55.81.49,1.96.99,1.7,2.19-.2.93-1.28,1.04-2.08,1.35-9.96,3.8-19.87,7.73-29.89,11.35-4.01,1.44-5.73,4.08-6.61,8.05-2.25,10.18-4.79,20.3-7.27,30.43-.19.78.13,1.99-.93,2.25-1.15.28-1.73-.87-2.31-1.59-4.47-5.49-8.87-11.03-13.31-16.55-1.79-2.23-4.12-4.2-5.29-6.71-2.84-6.07-7.85-6.26-13.15-5.31-5.05.91-10.16.4-15.22,1.21-4.64.74-9.41.62-14.12.9-2.29.13-2.54-.49-1.34-2.5,5.63-9.38,11.75-18.43,17.94-27.44,2.12-3.08,2.1-5.83.75-9.06-4.08-9.73-8.03-19.51-12.01-29.28-.4-.99-1.57-2.06-.71-3.07,1.05-1.23,2.33.06,3.43.35,10.7,2.76,21.38,5.58,32.04,8.48,2.39.65,4.2.28,6.14-1.39,7.69-6.68,15.51-13.2,23.3-19.76,1.42-1.19,2.9-2.3,4.66-3.69Z"/>
  <path class="cls-3" d="M65.88,88.95c6.56-3.24,12.84-6.35,19.13-9.44,4.88-2.39,9.71-4.89,14.68-7.07,2.02-.89,2.7-2.08,3-4.16,1.63-11.27,3.44-22.52,5.15-33.78.15-.99,0-2.15,1.1-2.59,1.18-.47,1.79.63,2.44,1.32,7.52,7.95,15.07,15.86,22.46,23.93,2.17,2.37,4.21,3.04,7.51,2.41,10.82-2.08,21.73-3.68,32.61-5.43.7-.11,1.65-.14,2.13.25.93.74.01,1.61-.35,2.3-5.15,9.76-10.27,19.54-15.59,29.21-1.25,2.28-1.74,4.21-.53,6.63,4.16,8.28,7.77,16.84,12.77,24.68.68,1.06,1.29,2.06,1.48,3.36.26,1.72,3.11,3.1,1.46,4.86-1.33,1.42-3.57-.13-5.31-.4-10.15-1.62-20.28-3.4-30.35-5.45-2.42-.49-3.71.27-5.2,1.76-7.76,7.71-15.57,15.36-23.36,23.05-.84.83-1.32,2.62-2.73,2.04-1.22-.5-1.9-2.22-1.86-3.48.16-4.78-1.14-9.36-1.67-14.04-.74-6.52-1.54-13.04-2.28-19.56-.13-1.13-.76-1.77-1.71-2.25-7.42-3.74-14.88-7.42-22.25-11.27-4.13-2.15-8.6-3.68-12.75-6.88Z"/>
  <path class="cls-3" d="M371.68,45.06c.48.11,1.69.41,2.9.63,8.65,1.59,17.38,2.82,25.92,4.86,4.55,1.09,7.95-.07,10.62-3.2,5.75-6.75,12.54-12.45,18.47-19,.83-.92,1.51-1.97,2.29-2.93.65-.81,1.43-1.4,2.55-1.27,1.44.16,1.23,1.3,1.36,2.26,1.53,11.04,3.67,22,4.41,33.14.13,1.91.58,3.34,2.37,4.28,5.13,2.7,10.25,5.44,15.34,8.21,5.09,2.77,10.55,4.77,15.48,7.87,2.58,1.62,2.22,2.9-.06,3.89-9,3.88-17.31,9.28-26.65,12.35-6.85,2.25-7.16,7.84-7.94,13.49-1.05,7.6-2.37,15.17-3.51,22.76-.22,1.47-.05,3.01-.33,4.46-.31,1.59-.89,3.13-2.8,1.1-5.02-5.32-10.06-10.62-15.12-15.91-3.25-3.4-6.54-6.77-9.83-10.13-1.54-1.57-3.57-1.14-5.33-.86-10.65,1.66-21.27,3.47-31.89,5.24-.92.15-1.94,1.09-2.72-.01-.63-.9-.15-1.92.33-2.82,4.4-8.29,8.63-16.67,13.26-24.83,2.89-5.1,3.73-9.32.45-15.07-4.61-8.08-8.63-16.57-12.87-24.9-1.45-2.84-.83-3.67,3.31-3.61Z"/>
  <path class="cls-6" d="M370.51,616.54c8.35,2.31,16.06,4.45,23.77,6.57,3.95,1.09,7.99,1.93,11.84,3.28,3.11,1.09,5.08-.06,7.32-2.01,8.79-7.64,17.74-15.09,27.09-23,.44,3.72,1.21,6.86,1.11,9.97-.24,7.49,1.46,14.97.68,22.36-.73,6.91,2.77,9.94,8.04,12.89,8.96,5.01,17.61,10.59,27.11,16.37-7.06,2.77-13.34,5.26-19.63,7.7-5.45,2.11-10.9,4.24-16.39,6.23-1.61.58-2.34,1.53-2.72,3.15-2.68,11.23-5.45,22.45-8.18,33.67-.2.8.19,1.91-.91,2.24-1.12.33-1.42-.78-1.93-1.41-7.29-8.96-14.63-17.88-21.8-26.93-1.47-1.85-3.02-2.25-5.17-2.06-8.89.77-17.79,1.53-26.69,2.08-2.13.13-4.17.65-6.27.78-.95.06-2.14.43-2.79-.51-.73-1.06.32-1.82.84-2.62,5.42-8.33,10.49-16.93,16.42-24.89,3.49-4.69,2.88-8.5.78-13.27-4.34-9.86-8.2-19.94-12.52-30.58Z"/>
  <path class="cls-2" d="M453.3,168.57c-2.9,6.32-8.22,10.66-13.25,15.19-3.2,2.87-3.24,5.76-1.93,9.62,1.27,3.75,1.48,7.86,2.12,11.82.18,1.09-.15,2.48.41,3.26,1.01,1.38,1.18,2.24-.21,3.41-1.47,1.24-3.16,1.46-4.4.3-4.97-4.67-11.96-4.84-17.59-8.09-1.65-.95-4.25-.87-5.97,1.51-1.19,1.65-3.17,2.32-5.31,2.97-3.7,1.12-6.83,3.71-9.94,6.09-.81.62-1.47,1.42-2.6.87-1.01-.49-.81-1.49-.76-2.31.37-5.84,1.22-11.6,2.67-17.27.82-3.19.46-6.27-2.06-8.63-4.49-4.2-8.2-9.24-13.67-12.4-.93-.54-2.31-1.9-1.65-3.05,1.07-1.85,2.34-3.91,4.97-3.94,3.12-.03,6.34.48,9.33-.15,4.02-.84,8.89-.28,11.5-4.43,1.52-2.42,2.3-5.34,3.34-8.01,1.42-3.66,4.93-6.19,5.21-10.38.07-1.13,1.27-.97,2.12-1.01,1.1-.05,1.54.6,2.23,1.46,2.74,3.39,4.26,7.35,5.65,11.33,1.14,3.27,4.44,4.65,5.84,7.61.15.32.86.52,1.31.52,4.67-.02,9.24.35,13.86,1.37,2.93.65,6.09.22,8.78,2.36Z"/>
  <path class="cls-1" d="M82.72,338.24c2.92,4.34,4.29,9.54,6.62,14.27.38.78.74,1.61.9,2.45,1.79,9.41,9.99,8.22,16.4,9.85,3.36.86,6.84,1.23,10.22,2,.87.2,2.32-.2,2.57.99.25,1.23-1.05,1.88-1.85,2.6-4.91,4.41-9.78,8.86-14.82,13.1-2.09,1.75-2.53,3.52-2.1,6.17,1.1,6.73,1.83,13.52,2.65,20.3.1.8.46,1.88-.44,2.41-.88.51-1.64-.31-2.36-.73-5.93-3.42-11.86-6.84-17.74-10.34-1.86-1.11-3.46-1.32-5.55-.27-6.23,3.11-12.58,5.97-18.92,8.86-.78.35-1.49,1.78-2.53.67-.62-.66-.32-1.69-.08-2.52,1.99-6.81,2.85-13.87,4.52-20.75.56-2.29.17-3.69-1.4-5.29-4.8-4.89-9.47-9.9-14.16-14.9-.64-.68-1.9-1.21-1.47-2.36.41-1.08,1.78-.84,2.65-.94,6.03-.73,12.08-1.44,18.14-1.85,3.18-.22,5.61-.8,7.23-4.03,3.12-6.22,6.66-12.23,10.04-18.31.29-.52.42-1.2,1.48-1.38Z"/>
  <path class="cls-1" d="M188.09,78.91c-.38-5.39,1.82-9.77,2.31-14.41.13-1.23.25-2.54.77-3.63,3.1-6.49.79-11.11-4.42-15.4-3.61-2.97-6.37-6.95-9.76-10.22-2.67-2.57-.92-3.42,1.3-3.48,5.73-.16,11.33-1.44,17.02-1.67,4.2-.17,6.99-1.42,8.86-5.72,2.52-5.79,6.08-11.12,9.2-16.64.36-.63.67-1.45,1.6-1.28.75.14.66.95.9,1.49,2.92,6.6,5.87,13.19,8.72,19.82.88,2.05,2.13,2.83,4.44,3.18,6.73,1.03,13.39,2.55,20.08,3.89,2.44.49,2.95,1.39.88,3.25-4.26,3.82-8.06,8.28-12.72,11.5-4.27,2.95-4.91,6.46-4.28,10.9.87,6.13,1.72,12.27,2.6,18.4.09.61.37,1.31-.31,1.65-.77.37-1.43-.24-2.05-.6-5.68-3.34-11.45-6.54-16.98-10.12-2.89-1.87-5.35-1.9-8.34-.4-6.4,3.22-12.93,6.2-19.82,9.48Z"/>
  <path class="cls-3" d="M299.93,300.31c.79,1.56-.06,2.95-.39,4.36-1.49,6.25-2.94,12.52-4.58,18.73-.45,1.69-.64,2.9.69,4.37,4.82,5.35,9.46,10.85,14.16,16.31.55.63,1.58,1.14,1.28,2.1-.34,1.09-1.48.64-2.28.7-7.04.52-14.09,1.17-21.14,1.44-2.6.1-3.29,1.89-4.36,3.47-3.64,5.43-6.9,11.1-10.04,16.83-.55,1.01-1.02,2.68-2.4,2.44-1.07-.19-.96-1.82-1.36-2.83-2.69-6.64-5.51-13.22-8.25-19.84-.53-1.28-1.6-1.36-2.71-1.61-6.4-1.44-12.81-2.87-19.17-4.48-1.33-.34-3.54,0-3.77-1.59-.19-1.35,1.67-2.3,2.8-3.26,3.59-3.05,6.93-6.51,10.88-9.01,5.85-3.7,5.86-8.96,5.14-14.69-.61-4.91-1.25-9.81-1.89-14.72-.11-.82.09-1.49.82-1.91.66-.38,1.14.07,1.67.41,5.62,3.61,11.34,7.08,16.86,10.85,2.42,1.66,4.56,2.03,7.24.82,5.65-2.56,11.37-4.96,17.07-7.41,1.24-.53,2.3-1.51,3.76-1.48Z"/>
  <path class="cls-3" d="M411.17,280.6c-.53-5.73-1.11-11.53-1.56-17.34-.09-1.17-.68-2.9.52-3.45,1.36-.62,2.73.47,4,1.34,5.29,3.66,10.63,7.25,16.31,10.33,1.6.87,2.56.73,3.99.09,5.89-2.63,11.79-5.26,17.78-7.67,3.46-1.4,4.75-.28,3.58,3.33-1.08,3.32-1.58,6.76-2.58,10.05-.87,2.85-.65,5.94-2.21,8.63-.69,1.19,0,2.33.89,3.37,4.39,5.06,8.73,10.17,13.06,15.29.84.99,2.57,1.71,1.96,3.29-.56,1.47-2.2.6-3.35.82-6.49,1.24-13.13.52-19.65,1.44-1.83.26-2.87,1.07-3.81,2.54-3.61,5.64-7.39,11.18-10.27,17.26-.45.96-.8,1.91-2,1.86-1.21-.05-1.49-1.04-1.87-2.02-2.32-5.99-5.2-11.75-6.99-17.95-1.08-3.74-4.55-4.14-7.41-4.49-6.29-.77-12.23-2.99-18.46-3.99-2.45-.39-.73-1.8.03-2.46,3.28-2.85,6.52-5.77,10.02-8.33,2.55-1.86,4.46-4.34,6.92-6.26,1.96-1.53.57-3.76,1.1-5.69Z"/>
  <path class="cls-3" d="M75.65,490.34c.22,2.58-1.44,4.54-1.83,6.88-.68,4.02-1.51,8.06-2.71,11.95-.97,3.13.27,5.18,2.18,7.29,3.9,4.32,7.73,8.7,11.59,13.05.82.93,2.04,1.97,1.56,3.17-.56,1.39-2.2.61-3.36.7-6.91.55-13.83,1.04-20.75,1.54-.78.06-1.59.2-1.93.92-1.98,4.13-4.97,7.55-7.54,11.25-1.45,2.09-2.15,5.14-3.57,7.57-.52.89-1,2.4-2.18,2.21-1.16-.18-1.14-1.73-1.54-2.75-2.47-6.23-4.98-12.43-7.45-18.66-.5-1.26-1.29-1.89-2.69-2.2-7-1.56-13.97-3.27-20.95-4.95-.79-.19-1.9.11-2.21-1.01-.32-1.18.6-1.82,1.36-2.44,5.02-4.05,10.01-8.13,14.78-12.48,1.77-1.62,2.38-3.24,2.41-5.49.1-6.36-1.17-12.59-1.51-18.89-.23-4.33.06-4.55,3.82-2.31,5.09,3.02,10.01,6.33,14.91,9.66,2.33,1.59,4.4,1.95,7.11.68,5.72-2.7,11.65-4.97,17.44-7.55,2.28-1.01,3.33-.69,3.06,1.87Z"/>
  <path class="cls-2" d="M228.46,695.09c-1.99-.24-4.86.36-7.73,2.84-2.91,2.51-7.69,2.19-10.23,5.89-.55.8-2.37.73-3.13-.03-1.27-1.25-1.16-3.41-.4-4.55,1.63-2.46,1.07-5.01,1.23-7.56.11-1.82,0-3.53,1.06-5.34,1.56-2.63-.2-8.51-2.81-10.06-5.3-3.13-8.92-8.07-13.43-12.04-2.03-1.78-1.1-2.87.86-3.3,3.33-.73,6.53-1.86,10.11-1.86,4.12,0,7.95-2.2,11.7-3.81,3.78-1.62,4.5-6.09,5.73-9.49,1.14-3.18,2.78-5.9,4.36-8.77,1.54-2.8,3.16-1.89,4.11-.09,3.2,6.08,7.55,11.53,9.83,18.1.52,1.5,1.73,1.19,2.79,1.2,3.62.05,7.26.32,10.84-.05,3.25-.33,6.05.96,8.93,1.77,2.21.62,1.71,2.9.49,4.22-3.72,4.01-6.66,8.7-10.78,12.35-1.39,1.23-1.9,2.67-1.96,4.58-.18,5.82.54,11.42,2.8,16.83.9,2.15.21,4.56-1.39,5.87-2.03,1.67-4.14-.6-5.68-1.53-1.84-1.12-3.34-2.4-5.65-2.15-.55.06-1.42-.14-1.69-.53-2.2-3.2-5.5-2.28-9.95-2.5Z"/>
  <path class="cls-2" d="M21.05,76.15c1.84-2.69.75-6.87,2.47-10.45,1.43-2.98.5-7.93-1.83-10.25-4.45-4.42-8.78-8.95-13.9-12.66-1.46-1.06-3.03-2.72.58-4.12,4.3-1.67,8.48-2.99,13.11-2.61,1.91.15,3.43-.95,5.1-1.49,4.48-1.46,6.22-3.67,7.36-8.55.9-3.88,3.49-8.1,6.12-11.72.54-.75.42-2.05,1.79-2.12,1.41-.07,1.34,1.09,1.82,1.93,3.42,5.97,6.93,11.88,10.38,17.84.34.59.72,1.13,1.37,1.05,4.49-.56,8.55,2.51,13.07,1.56,3.46-.73,6.27,1.94,9.71,1.71,1.46-.1,1.56,1.55.56,2.45-3.78,3.4-7.11,7.17-9.96,11.37-.4.59-.99.66-1.45,1-2.4,1.73-4.95,2.79-3.26,7.17,1.23,3.18.68,7.21,1.76,10.79.51,1.7.36,3.48,1.23,5.28,1,2.07,1,5.01-1.65,6.18-2.26,1-4.52-.62-5.33-2.51-1.06-2.47-3.24-1.37-4.75-2.15-3.35-1.73-6.29-4.11-10.73-4.12-4.23,0-6.68,2.6-9.91,3.96-2.88,1.22-5.36,3.36-8.13,4.88-4.26,2.33-5.58,1.43-5.52-4.4Z"/>
  <path class="cls-1" d="M422.12,401.84c1.66-5.2.23-10.97,1.85-16.38.64-2.15-.23-3.34-1.7-4.41-4.93-3.6-8.58-8.68-13.8-11.94-.66-.41-1.16-1-.91-1.86.28-.94,1.18-.77,1.87-.89,5.32-.98,10.61-2.31,15.98-2.78,3.31-.29,4.85-2.18,5.63-4.59,1.61-4.96,3.86-9.6,6.08-14.27.41-.87.4-2.18,1.76-1.99,1.02.15,1.68,1.03,2.01,2.02,1.73,5.24,5.8,9.26,7.54,14.5.6,1.81,2.07,2.43,3.72,2.67,5.52.78,11.05,1.5,16.58,2.2,1.12.14,2.33.03,2.74,1.41.35,1.16-.5,1.86-1.21,2.55-2.85,2.77-5.26,6.09-8.21,8.59-4.36,3.7-4.51,7.84-2.84,12.33,1.61,4.34,1.14,9.11,3.26,13.29.33.66.33,1.57-.4,2.03-.82.51-1.62.14-2.44-.31-5.09-2.81-10.26-5.47-15.63-7.71-2-.84-3.31-.54-5.32.73-2.98,1.88-5.97,3.91-9.19,5.45-1.23.59-2.55,1.02-3.73,1.71-.97.57-1.45,2.5-2.94,1.48-1.16-.79-.24-2.35-.71-3.8Z"/>
  <path class="cls-6" d="M46.35,354.23c-4.37-5.72-8.12-10.35-11.53-15.22-1.53-2.17-3.02-2.7-5.62-2.32-4.78.69-9.64.84-14.46,1.2-3.31.25-2.87-1.41-1.65-3.37,2.49-4.02,4.75-8.21,7.59-11.97,2.08-2.75,1.73-5.22.66-7.98-1.7-4.41-3.43-8.81-5.1-13.24-.33-.87-1.43-1.81-.6-2.7.93-.99,2.08-.05,3.13.24,4.92,1.32,9.87,2.52,14.74,4,1.93.59,3.19.32,4.63-1.1,3.54-3.48,7.26-6.77,10.91-10.14.74-.69,1.62-1.49,2.58-1.29,1.33.27.69,1.66.92,2.54,1.29,5.04.53,10.17.6,15.26.03,2.38.68,3.93,2.75,5.19,4.56,2.78,8.95,5.84,13.48,8.67,2.47,1.54,1.53,2.29-.46,3.07-4.74,1.87-9.41,3.95-14.22,5.62-2.51.88-3.32,2.41-3.83,4.85-1.23,5.93-2.82,11.78-4.51,18.68Z"/>
  <path class="cls-2" d="M309.88,69.1c.67-4.85-.49-8.84,1.19-13.12,1-2.53,2.04-6.33-2.33-8.87-4.29-2.5-6.9-7.36-11.32-10.06-1.13-.69-1.25-1.78.29-2.53,1.67-.82,3.24-1.64,5.25-1.51,3.8.23,7.63.3,11.17-1.53,2.31-1.2,4.56-2.31,4.94-5.46.2-1.62,1.01-3.33,2-4.66,1.19-1.59,2.58-2.86,2.56-5.13-.01-1.32,1.5-2.02,2.62-2.33,1.26-.34,1.29,1.16,1.9,1.86,1.64,1.89,3.37,3.64,2.83,6.49-.19.99.47,1.5,1.39,1.9,1.52.67,2.64,1.8,3.13,3.49.37,1.3,1.32,2.45,2.62,2.28,4.81-.62,9.23,1.76,13.94,1.61,1.88-.06,3.55.27,4.16,2.33.62,2.1-1.59,1.72-2.35,2.59-4.12,4.75-10.52,8.26-9.43,16.02.49,3.47,1.08,6.97,2.14,10.3.52,1.62,1.5,3.3.04,4.31-1.32.91-3.95,1.18-4.85-.24-2.86-4.52-8.66-3.08-12.05-6.46-.93-.93-2.89-.69-4.22.27-4.59,3.29-9.88,5.25-15.65,8.46Z"/>
  <path class="cls-1" d="M457.89,563.19c.06.94-.7,1.22-1.26,1.7-2.84,2.42-5.57,4.96-8.48,7.29-2.58,2.06-3.07,4.5-2.39,7.61.63,2.89.89,5.88,1.2,8.83.27,2.59-1.02,2.75-2.91,1.66-3.11-1.78-6.35-3.39-9.28-5.44-2.32-1.62-4.28-1.4-6.56-.17-3.06,1.65-6.2,3.14-9.33,4.66-.86.42-1.8,1.32-2.75.62-.96-.71-.36-1.79-.14-2.76.66-2.78.95-5.67,1.9-8.34,1.62-4.51-.13-7.54-3.48-10.32-2.19-1.82-4.09-4.01-6.08-6.07-1.18-1.23-.85-1.88.85-2.06,4.43-.45,8.85-1.11,13.3-1.39,1.93-.12,2.83-.93,3.67-2.51,1.8-3.4,3.82-6.7,5.74-10.04.43-.75.77-1.72,1.86-1.49.8.17.96,1,1.27,1.7,1.38,3.2,2.97,6.31,4.21,9.56,1.02,2.69,2.89,3.82,5.58,4.16,3.69.46,7.35,1.05,11.03,1.56.89.12,1.75.21,2.04,1.24Z"/>
  <path class="cls-2" d="M53.95,628.55c.02.9-.18,1.63-.92,2.31-1.64,1.51-3.13,3.18-4.71,4.77-3.74,3.77-4.47,7.44-2.33,12.34.69,1.58.44,3.39,1.61,4.89.95,1.22-.48,2.04-1.27,2.69-1.29,1.07-2.81,1.04-4.11.04-1.27-.97-2.68-1.77-3.9-2.69-5.66-4.26-10.27-1.17-14.83,1.78-1.67,1.08-3.36,2.49-4.9,1.02-1.41-1.35-2.81-3.02-1.15-5.82,2.67-4.52-.38-12.14-5.7-15.6-1.68-1.09-4.74-1.41-3.8-4.08.95-2.67,3.99-3.46,6.67-3.85,2.65-.38,5.48.54,7.9-1.4.56-.45,1.33-.56,1.49-1.46.7-3.85,3.62-6.76,4.48-10.53.34-1.49,1.22-1.71,2.45-1.6,1.34.12,2.06.91,2.04,2.21-.09,5,4.39,7.22,6.63,10.79.3.47,1.68.57,2.45.39,3.72-.85,6.84,1.91,10.47,1.63,1.34-.1,1.43,1.12,1.44,2.16Z"/>
  <path class="cls-6" d="M137.44,690.21c-.25.68-.74,1.05-1.39,1.13-4.05.46-7.2,3.36-11.18,4.08-1.5.27-2.46,1.26-3.03,2.92-1.21,3.56-1.6,7.26-2.4,10.89-.8,3.63-1.68,3.86-4.14,1.18-1.76-1.91-3.43-3.96-4.79-6.17-2.32-3.78-5.66-4.64-9.58-3.6-2.98.79-5.95.33-8.92.52-1.9.12-2.15-.59-1.07-2.18,2.3-3.39,4.33-6.98,6.74-10.29,1.22-1.67,1.28-2.97.49-4.77-1.55-3.53-2.89-7.15-4.27-10.75-.72-1.89-.87-3.24,1.97-2.3,2.94.97,6.08,1.42,8.93,2.6,3.44,1.42,5.97.35,8.42-1.93,2.37-2.19,4.8-4.32,7.23-6.45.52-.46.99-1.28,1.86-.8.64.35.53,1.09.49,1.68-.3,3.75.76,7.44.66,11.14-.09,3.24,1.26,4.96,4,6.34,2.99,1.5,5.77,3.42,8.6,5.22.57.36,1.46.59,1.37,1.55Z"/>
  <path class="cls-1" d="M11.44,100.63c3.22,2.03,7.32,1.82,10.81,3.48,2.65,1.26,4.67.53,6.73-1.36,2.47-2.26,5.22-4.21,7.78-6.37,1.84-1.54,2.74-.87,2.86,1.2.15,2.61.39,5.29,0,7.85-.78,5.18,2.14,7.85,6.11,9.9,2.44,1.26,4.77,2.61,6.94,4.3,1.69,1.32,1.8,1.94-.45,2.56-2.75.76-5.38,2.06-8.16,2.58-4.53.85-6.4,3.96-7.1,7.9-.42,2.34-.9,4.63-1.66,6.87-.29.87.39,2.31-.96,2.48-.61.08-1.38-.9-2.03-1.46-1.82-1.56-3.26-3.47-4.42-5.52-2.86-5.08-7.18-6.43-12.54-5.08-2.11.53-4.21.33-6.32.4-2.34.08-2.62-.85-1.33-2.68,2.14-3.02,4.12-6.15,6.3-9.13,1.28-1.75,1.18-3.24.26-5.16-1.59-3.33-2.86-6.83-4.18-10.29-.41-1.07-.61-2.27,1.34-2.46Z"/>
  <path class="cls-2" d="M428.29,471.96c.11-1.7.01-3.28,1.01-4.97,1.63-2.77-1.11-8.01-4.38-8.39-3.29-.39-4.67-3.43-5.25-5.18-1.07-3.22,2.63-3.47,4.88-3.81,2.76-.41,5.61.25,8.22-1.5,1.28-.85,2.54-1.52,2.98-3.06.9-3.14,3.56-5.25,4.77-8.22.4-.99,1.57-1.06,2.19-.36,2.1,2.39,4.78,4.63,5.88,7.45,1.91,4.92,6.15,4.62,9.86,5.49,2.01.47,4.22.08,6.34.11.98.01,2.1-.1,2.26,1.32.13,1.14-.8,1.24-1.53,1.73-3.31,2.22-6.16,4.92-8.07,8.51-1.14,2.14-.99,4.28-.21,6.45.16.46.67.85.71,1.29.22,2.43,1.27,5.41-.5,7.12-1.56,1.52-3.39-1.15-5.17-1.75-3.59-1.21-7.06-2.55-11-2.3-3.03.2-4.48,2.8-6.95,3.9-5.27,2.35-6.07,2.05-6.06-3.85Z"/>
  <path class="cls-2" d="M83.54,448.93c-2.33,2.32-4.13,5.21-7.3,6.6-.99.43-1.39,1.05-1.29,1.98.4,3.61-1.05,7.36,1.18,10.89.76,1.21.86,3.33-.55,4.51-1.28,1.07-2.63.56-4.03-.44-2.81-2.01-6.35-2.35-9.55-3.3-2.97-.88-5.88,1.08-8.44,2.62-2.07,1.24-4.49,3.86-6.29,2.58-1.98-1.4-1.09-4.96-.58-7.39,1.37-6.59.7-8.52-5.13-11.6-.11-.06-.28-.04-.35-.13-1.74-1.99-5.48-3.3-4.78-6.05.63-2.5,4.2-1.31,6.29-1.05,3.19.4,5.66-1.46,8.57-1.84,1.7-.22,1.53-2.55,2.5-3.8,1.24-1.61,1.99-3.61,2.83-5.5.55-1.24.7-2.62,2.63-2.5,1.89.12,2.89,1.19,3.63,2.72.75,1.54,1.23,3.28,2.26,4.6,2.32,2.98,4.9,5.46,9.34,4.78,3.12-.48,6.39-.39,9.07,2.32Z"/>
  <path class="cls-3" d="M24.71,431.67c-1.5-3.59-3.59-6.24-4.36-9.59-.73-3.12-2.73-5.09-6.18-5.49-2.58-.3-5.1-1.04-7.66-1.53-2.54-.49-2.57-1.63-.84-3.17,2.39-2.12,4.77-4.26,7.26-6.25,2.02-1.62,2.37-3.69,2.08-6.02-.34-2.83-.69-5.65-1.1-8.47-.11-.73-.53-1.5.28-2,.73-.46,1.47-.02,2.09.36,2.44,1.49,5.04,2.8,7.22,4.61,2.14,1.78,4.27,1.83,6.6,1.01,3.05-1.07,6.03-2.33,9.06-3.43.81-.29,1.59-1.84,2.48-.59.48.67.54,2.11.14,2.85-1.49,2.7-1.45,5.74-2.31,8.54-.65,2.1-.25,3.47,1.22,5,2.23,2.33,4.17,4.92,6.31,7.34.62.71,1.11,1.36.77,2.31-.32.89-1.16.99-1.87.85-10.11-1.92-16.19,2.86-19.79,11.82-.22.54-.72.96-1.4,1.85Z"/>
</svg>