<?xml version="1.0" encoding="iso-8859-1"?>
<!-- Generator: Adobe Illustrator 19.1.0, SVG Export Plug-In . SVG Version: 6.00 Build 0)  -->
<svg version="1.1" id="Capa_1" xmlns="http://www.w3.org/2000/svg" xmlns:xlink="http://www.w3.org/1999/xlink" x="0px" y="0px"
	 viewBox="0 0 471.2 471.2" style="enable-background:new 0 0 471.2 471.2;" xml:space="preserve">
<g>
	<g>

		<path fill="black" d="M159.3,126.15l62.8-62.8v273.9c0,7.5,6,13.5,13.5,13.5s13.5-6,13.5-13.5V63.35l62.8,62.8c2.6,2.6,6.1,4,9.5,4
			c3.5,0,6.9-1.3,9.5-4c5.3-5.3,5.3-13.8,0-19.1l-85.8-85.8c-2.5-2.5-6-4-9.5-4c-3.6,0-7,1.4-9.5,4l-85.8,85.8
			c-5.3,5.3-5.3,13.8,0,19.1C145.5,131.35,154.1,131.35,159.3,126.15z"/>
	</g>
</g>
<g>
</g>
<g>
</g>
<g>
</g>
<g>
</g>
<g>
</g>
<g>
</g>
<g>
</g>
<g>
</g>
<g>
</g>
<g>
</g>
<g>
</g>
<g>
</g>
<g>
</g>
<g>
</g>
<g>
</g>
</svg>
